name rise44.9368peak50.754fall52.0217.mot
datacolumns 19
datarows 12
range 12.78161800000000 12.79995100000000
endheader
time	ground_force1_vx	ground_force1_vy	ground_force1_vz	ground_force1_px	ground_force1_py	ground_force1_pz	ground_force2_vx	ground_force2_vy	ground_force2_vz	ground_force2_px	ground_force2_py	ground_force2_pz	ground_torque1_x	ground_torque1_y	ground_torque1_z	ground_torque2_x	ground_torque2_y	ground_torque2_z	
12.78161800000000	-5.47432700000000	697.39902099999995	45.44747500000000	0.22647900000000	0.00000000000000	0.11743200000000	0.00000000000000	0.00000000000000	0.00000000000000	0.00000000000000	0.00000000000000	0.00000000000000	0.00000000000000	21.48112100000000	0.00000000000000	0.00000000000000	0.00000000000000	0.00000000000000	
12.78329300000000	-5.78831000000000	696.38717899999995	45.39014000000000	0.22582000000000	0.00000000000000	0.11743200000000	0.00000000000000	0.00000000000000	0.00000000000000	0.00000000000000	0.00000000000000	0.00000000000000	0.00000000000000	21.47803700000000	0.00000000000000	0.00000000000000	0.00000000000000	0.00000000000000	
12.78495800000000	-6.10757600000000	695.42106500000000	45.33947800000000	0.22518400000000	0.00000000000000	0.11743000000000	0.00000000000000	0.00000000000000	0.00000000000000	0.00000000000000	0.00000000000000	0.00000000000000	0.00000000000000	21.48120900000000	0.00000000000000	0.00000000000000	0.00000000000000	0.00000000000000	
12.78662600000000	-6.43277500000000	694.50154099999997	45.29527000000000	0.22456800000000	0.00000000000000	0.11742900000000	0.00000000000000	0.00000000000000	0.00000000000000	0.00000000000000	0.00000000000000	0.00000000000000	0.00000000000000	21.49052300000000	0.00000000000000	0.00000000000000	0.00000000000000	0.00000000000000	
12.78828400000000	-6.76455000000000	693.62944600000003	45.25729400000000	0.22396900000000	0.00000000000000	0.11742700000000	0.00000000000000	0.00000000000000	0.00000000000000	0.00000000000000	0.00000000000000	0.00000000000000	0.00000000000000	21.50585900000000	0.00000000000000	0.00000000000000	0.00000000000000	0.00000000000000	
12.78995900000000	-7.10354100000000	692.80559900000003	45.22532400000000	0.22338600000000	0.00000000000000	0.11742500000000	0.00000000000000	0.00000000000000	0.00000000000000	0.00000000000000	0.00000000000000	0.00000000000000	0.00000000000000	21.52709400000000	0.00000000000000	0.00000000000000	0.00000000000000	0.00000000000000	
12.79162300000000	-7.45037700000000	692.03080499999999	45.19913500000000	0.22281500000000	0.00000000000000	0.11742200000000	0.00000000000000	0.00000000000000	0.00000000000000	0.00000000000000	0.00000000000000	0.00000000000000	0.00000000000000	21.55410300000000	0.00000000000000	0.00000000000000	0.00000000000000	0.00000000000000	
12.79329100000000	-7.80567500000000	691.30585900000005	45.17849900000000	0.22225500000000	0.00000000000000	0.11742000000000	0.00000000000000	0.00000000000000	0.00000000000000	0.00000000000000	0.00000000000000	0.00000000000000	0.00000000000000	21.58675800000000	0.00000000000000	0.00000000000000	0.00000000000000	0.00000000000000	
12.79495800000000	-8.17003900000000	690.63154299999997	45.16318600000000	0.22170300000000	0.00000000000000	0.11741700000000	0.00000000000000	0.00000000000000	0.00000000000000	0.00000000000000	0.00000000000000	0.00000000000000	0.00000000000000	21.62492800000000	0.00000000000000	0.00000000000000	0.00000000000000	0.00000000000000	
12.79662200000000	-8.54405200000000	690.00863600000002	45.15296900000000	0.22115700000000	0.00000000000000	0.11741500000000	0.00000000000000	0.00000000000000	0.00000000000000	0.00000000000000	0.00000000000000	0.00000000000000	0.00000000000000	21.66848100000000	0.00000000000000	0.00000000000000	0.00000000000000	0.00000000000000	
12.79828600000000	-8.92827800000000	689.43791099999999	45.14761900000000	0.22061300000000	0.00000000000000	0.11741300000000	0.00000000000000	0.00000000000000	0.00000000000000	0.00000000000000	0.00000000000000	0.00000000000000	0.00000000000000	21.71728300000000	0.00000000000000	0.00000000000000	0.00000000000000	0.00000000000000	
12.79995100000000	-9.32325700000000	688.92013899999995	45.14691300000000	0.22007000000000	0.00000000000000	0.11741100000000	0.00000000000000	0.00000000000000	0.00000000000000	0.00000000000000	0.00000000000000	0.00000000000000	0.00000000000000	21.77119900000000	0.00000000000000	0.00000000000000	0.00000000000000	0.00000000000000	
